<?xml version="1.0" encoding="utf-8"?>
<!-- Generator: Adobe Illustrator 25.4.1, SVG Export Plug-In . SVG Version: 6.00 Build 0)  -->
<svg version="1.1" id="Layer_1" xmlns="http://www.w3.org/2000/svg" xmlns:xlink="http://www.w3.org/1999/xlink" x="0px" y="0px"
	 viewBox="0 0 48 56.1" style="enable-background:new 0 0 48 56.1;" xml:space="preserve">
<style type="text/css">
	.st0{fill:#E0DCCD;}
</style>
<g id="Layer_2_00000107557010934430598250000014823756910899066771_">
	<g id="Layer_1-2">
		<path class="st0" d="M47.2,25.8c3.4,12.8-4.2,26-17,29.4s-26-4.2-29.4-17C-2.6,25.4,5,12.3,17.8,8.8l0,0l1.5-0.4l-5-2.9
			c-1.4-0.8-1.9-2.7-1.1-4.1C14,0,15.8-0.5,17.2,0.4l12.1,7c1,0.6,1.3,1.8,0.7,2.7l-7,12.1c-0.8,1.5-2.6,2-4.1,1.3
			c-1.5-0.8-2-2.6-1.3-4.1c0-0.1,0.1-0.1,0.1-0.2l2.9-5l-1,0.3c-9.5,2.6-15.6,12.3-13.2,22c2.4,9.6,12.2,15.5,21.9,13
			s15.5-12.2,13-21.9c-0.6-2.4-1.7-4.6-3.2-6.6c-0.4-0.5-0.7-1.2-0.7-1.9c0-0.5,0.1-1,0.4-1.5c0.8-1.4,2.6-1.9,4.1-1.1
			c0.3,0.2,0.6,0.4,0.8,0.7C44.9,19.8,46.4,22.7,47.2,25.8z"/>
	</g>
</g>
</svg>
