<svg xmlns="http://www.w3.org/2000/svg" viewBox="0 0 42.2 42.84"><defs><style>.cls-1{fill:#e0dccd;}</style></defs><g id="Layer_2" data-name="Layer 2"><g id="Layer_1-2" data-name="Layer 1"><path class="cls-1" d="M39.85,21.89,28.41,10.44a3,3,0,0,1,4.27-4.27l5,5.06,3.81-3.81-5-5.06A8.41,8.41,0,0,0,24.58,14.22L36,25.67a3,3,0,0,1-4.26,4.27L14.93,13.11A8.41,8.41,0,0,0,3,25l7.4,7.4a3,3,0,0,1-4.27,4.27L3.81,34.31,0,38.12l2.36,2.37A8.41,8.41,0,0,0,14.27,28.62l-7.4-7.41a3,3,0,0,1,4.27-4.27L28,33.77A8.4,8.4,0,0,0,39.85,21.89Z"/></g></g></svg>