<svg xmlns="http://www.w3.org/2000/svg" viewBox="0 0 48.01 56.06"><defs><style>.cls-1{fill:#0f4c5c;}</style></defs><g id="Layer_2" data-name="Layer 2"><g id="Layer_1-2" data-name="Layer 1"><g id="Layer_2-2" data-name="Layer 2"><g id="Layer_1-2-2" data-name="Layer 1-2"><path class="cls-1" d="M47.2,25.87a24,24,0,1,1-29.4-17h0l1.46-.39-5-2.88a3,3,0,0,1,3-5.2l12.12,7a2,2,0,0,1,.73,2.73l-7,12.13a3,3,0,0,1-5.32-2.78,2.53,2.53,0,0,1,.13-.22l2.87-5-1,.27C10.25,17.13,4.14,26.86,6.57,36.48A18,18,0,1,0,38.3,21.11a3,3,0,0,1-.67-1.92,3,3,0,0,1,.4-1.47,3,3,0,0,1,4.08-1.11,3.5,3.5,0,0,1,.85.73A24,24,0,0,1,47.2,25.87Z"/></g></g></g></g></svg>