<svg id="Layer_1" data-name="Layer 1" xmlns="http://www.w3.org/2000/svg" viewBox="0 0 16.66 16.66"><defs><style>.cls-1{fill:#0f4c5c;}</style></defs><path class="cls-1" d="M16.21,13.55,11,8.33,16.2,3.1a1.53,1.53,0,0,0,0-2.16L15.72.45A1.5,1.5,0,0,0,14.64,0h0a1.51,1.51,0,0,0-1.08.45L8.33,5.68,3.1.46A1.52,1.52,0,0,0,.94.45L.45.93a1.55,1.55,0,0,0,0,2.18L5.68,8.33.45,13.55a1.53,1.53,0,0,0,0,2.17l.49.49A1.5,1.5,0,0,0,2,16.66a1.58,1.58,0,0,0,1.09-.45L8.33,11l5.22,5.22a1.53,1.53,0,0,0,2.17,0l.48-.48a1.47,1.47,0,0,0,.46-1.08,1.54,1.54,0,0,0-.45-1.09Z"/></svg>